<svg width="85" height="24" viewBox="0 0 85 24" fill="none" xmlns="http://www.w3.org/2000/svg">
<path d="M0.32 23.5V2.5H9.5C11.78 2.5 13.78 2.94 15.5 3.82C17.22 4.7 18.56 5.92 19.52 7.48C20.48 9.04 20.96 10.88 20.96 13C20.96 15.1 20.48 16.94 19.52 18.52C18.56 20.08 17.22 21.3 15.5 22.18C13.78 23.06 11.78 23.5 9.5 23.5H0.32ZM4.22 20.2H9.32C10.9 20.2 12.26 19.9 13.4 19.3C14.56 18.7 15.45 17.86 16.07 16.78C16.71 15.7 17.03 14.44 17.03 13C17.03 11.54 16.71 10.28 16.07 9.22C15.45 8.14 14.56 7.3 13.4 6.7C12.26 6.1 10.9 5.8 9.32 5.8H4.22V20.2ZM32.2752 23.71C30.4952 23.71 28.9352 23.36 27.5952 22.66C26.2752 21.94 25.2452 20.96 24.5052 19.72C23.7852 18.48 23.4252 17.07 23.4252 15.49C23.4252 13.89 23.7752 12.48 24.4752 11.26C25.1952 10.02 26.1752 9.05 27.4152 8.35C28.6752 7.65 30.1052 7.3 31.7052 7.3C33.2652 7.3 34.6552 7.64 35.8752 8.32C37.0952 9 38.0552 9.96 38.7552 11.2C39.4552 12.44 39.8052 13.9 39.8052 15.58C39.8052 15.74 39.7952 15.92 39.7752 16.12C39.7752 16.32 39.7652 16.51 39.7452 16.69H26.3952V14.2H37.7652L36.2952 14.98C36.3152 14.06 36.1252 13.25 35.7252 12.55C35.3252 11.85 34.7752 11.3 34.0752 10.9C33.3952 10.5 32.6052 10.3 31.7052 10.3C30.7852 10.3 29.9752 10.5 29.2752 10.9C28.5952 11.3 28.0552 11.86 27.6552 12.58C27.2752 13.28 27.0852 14.11 27.0852 15.07V15.67C27.0852 16.63 27.3052 17.48 27.7452 18.22C28.1852 18.96 28.8052 19.53 29.6052 19.93C30.4052 20.33 31.3252 20.53 32.3652 20.53C33.2652 20.53 34.0752 20.39 34.7952 20.11C35.5152 19.83 36.1552 19.39 36.7152 18.79L38.7252 21.1C38.0052 21.94 37.0952 22.59 35.9952 23.05C34.9152 23.49 33.6752 23.71 32.2752 23.71ZM47.3743 23.5L40.5043 7.48H44.4043L50.3143 21.61H48.3943L54.5143 7.48H58.1143L51.2443 23.5H47.3743ZM60.458 23.5V7.48H64.208V23.5H60.458ZM62.348 4.84C61.648 4.84 61.068 4.62 60.608 4.18C60.168 3.74 59.948 3.21 59.948 2.59C59.948 1.95 60.168 1.42 60.608 0.999998C61.068 0.559999 61.648 0.34 62.348 0.34C63.048 0.34 63.618 0.549999 64.058 0.969999C64.518 1.37 64.748 1.88 64.748 2.5C64.748 3.16 64.528 3.72 64.088 4.18C63.648 4.62 63.068 4.84 62.348 4.84ZM76.3299 23.71C74.6899 23.71 73.2299 23.36 71.9499 22.66C70.6699 21.94 69.6599 20.96 68.9199 19.72C68.1799 18.48 67.8099 17.07 67.8099 15.49C67.8099 13.89 68.1799 12.48 68.9199 11.26C69.6599 10.02 70.6699 9.05 71.9499 8.35C73.2299 7.65 74.6899 7.3 76.3299 7.3C77.9899 7.3 79.4599 7.65 80.7399 8.35C82.0399 9.05 83.0499 10.01 83.7699 11.23C84.5099 12.45 84.8799 13.87 84.8799 15.49C84.8799 17.07 84.5099 18.48 83.7699 19.72C83.0499 20.96 82.0399 21.94 80.7399 22.66C79.4599 23.36 77.9899 23.71 76.3299 23.71ZM76.3299 20.5C77.2499 20.5 78.0699 20.3 78.7899 19.9C79.5099 19.5 80.0699 18.92 80.4699 18.16C80.8899 17.4 81.0999 16.51 81.0999 15.49C81.0999 14.45 80.8899 13.56 80.4699 12.82C80.0699 12.06 79.5099 11.48 78.7899 11.08C78.0699 10.68 77.2599 10.48 76.3599 10.48C75.4399 10.48 74.6199 10.68 73.8999 11.08C73.1999 11.48 72.6399 12.06 72.2199 12.82C71.7999 13.56 71.5899 14.45 71.5899 15.49C71.5899 16.51 71.7999 17.4 72.2199 18.16C72.6399 18.92 73.1999 19.5 73.8999 19.9C74.6199 20.3 75.4299 20.5 76.3299 20.5Z" fill="url(#paint0_linear_111_32)"/>
<defs>
<linearGradient id="paint0_linear_111_32" x1="13.3117" y1="0.28617" x2="28.2134" y2="42.6522" gradientUnits="userSpaceOnUse">
<stop stop-color="#60EFFF"/>
<stop offset="1" stop-color="#4522A9"/>
</linearGradient>
</defs>
</svg>
