<svg width="26" height="24" viewBox="0 0 26 24" fill="none" xmlns="http://www.w3.org/2000/svg">
<path d="M14.7677 3.25H23.0002C23.3317 3.25 23.6497 3.3817 23.8841 3.61612C24.1185 3.85054 24.2502 4.16848 24.2502 4.5V5.75H1.75021V2C1.75021 1.66848 1.88191 1.35054 2.11633 1.11612C2.35075 0.881696 2.66869 0.75 3.00021 0.75H12.2677L14.7677 3.25ZM1.85896 8.25H24.1415C24.3144 8.24992 24.4855 8.28573 24.6439 8.35517C24.8023 8.4246 24.9445 8.52615 25.0617 8.65339C25.1788 8.78062 25.2683 8.93078 25.3244 9.09437C25.3805 9.25795 25.4021 9.4314 25.3877 9.60375L24.3452 22.1038C24.3192 22.4161 24.1768 22.7073 23.9462 22.9196C23.7156 23.1319 23.4137 23.2498 23.1002 23.25H2.90021C2.58677 23.2498 2.28483 23.1319 2.05424 22.9196C1.82364 22.7073 1.68123 22.4161 1.65521 22.1038L0.612712 9.60375C0.598357 9.4314 0.619923 9.25795 0.676044 9.09437C0.732166 8.93078 0.821622 8.78062 0.938756 8.65339C1.05589 8.52615 1.19815 8.4246 1.35655 8.35517C1.51494 8.28573 1.68602 8.24992 1.85896 8.25Z" fill="#F4F4F4"/>
</svg>
