<svg width="28" height="27" viewBox="0 0 28 27" fill="none" xmlns="http://www.w3.org/2000/svg">
<path d="M13.9998 0.666748C6.63317 0.666748 0.666506 6.63341 0.666506 14.0001C0.664994 16.7991 1.54492 19.5276 3.18146 21.7983C4.818 24.0691 7.12803 25.7668 9.78384 26.6507C10.4505 26.7668 10.6998 26.3667 10.6998 26.0161C10.6998 25.7001 10.6825 24.6507 10.6825 23.5334C7.33317 24.1507 6.46651 22.7174 6.19984 21.9667C6.04917 21.5827 5.39984 20.4001 4.83317 20.0827C4.36651 19.8334 3.69984 19.2161 4.81584 19.2001C5.86651 19.1827 6.61584 20.1667 6.86651 20.5667C8.06651 22.5827 9.98384 22.0161 10.7492 21.6667C10.8665 20.8001 11.2158 20.2174 11.5998 19.8841C8.63317 19.5507 5.53317 18.4001 5.53317 13.3001C5.53317 11.8494 6.04917 10.6507 6.89984 9.71608C6.76651 9.38275 6.29984 8.01608 7.03317 6.18275C7.03317 6.18275 8.14917 5.83342 10.6998 7.55075C11.7853 7.2495 12.9067 7.09787 14.0332 7.10008C15.1665 7.10008 16.2998 7.24941 17.3665 7.54942C19.9158 5.81608 21.0332 6.18408 21.0332 6.18408C21.7665 8.01742 21.2998 9.38408 21.1665 9.71741C22.0158 10.6507 22.5332 11.8334 22.5332 13.3001C22.5332 18.4174 19.4172 19.5507 16.4505 19.8841C16.9332 20.3001 17.3505 21.1001 17.3505 22.3507C17.3505 24.1334 17.3332 25.5667 17.3332 26.0174C17.3332 26.3667 17.5838 26.7827 18.2505 26.6494C20.8972 25.7558 23.1971 24.0547 24.8264 21.7856C26.4557 19.5165 27.3324 16.7936 27.3332 14.0001C27.3332 6.63341 21.3665 0.666748 13.9998 0.666748Z" fill="white"/>
</svg>
