<svg width="28" height="28" viewBox="0 0 28 28" fill="none" xmlns="http://www.w3.org/2000/svg">
<path d="M13.9998 0.666748C17.6225 0.666748 18.0745 0.680081 19.4958 0.746748C20.9158 0.813415 21.8825 1.03608 22.7332 1.36675C23.6132 1.70541 24.3545 2.16408 25.0958 2.90408C25.7738 3.57061 26.2984 4.37687 26.6332 5.26675C26.9625 6.11608 27.1865 7.08408 27.2532 8.50408C27.3158 9.92541 27.3332 10.3774 27.3332 14.0001C27.3332 17.6227 27.3198 18.0747 27.2532 19.4961C27.1865 20.9161 26.9625 21.8827 26.6332 22.7334C26.2994 23.6238 25.7747 24.4302 25.0958 25.0961C24.4291 25.7738 23.6229 26.2984 22.7332 26.6334C21.8838 26.9627 20.9158 27.1867 19.4958 27.2534C18.0745 27.3161 17.6225 27.3334 13.9998 27.3334C10.3772 27.3334 9.92517 27.3201 8.50384 27.2534C7.08384 27.1867 6.11717 26.9627 5.2665 26.6334C4.37627 26.2994 3.56987 25.7747 2.90384 25.0961C2.22571 24.4297 1.70108 23.6234 1.3665 22.7334C1.03584 21.8841 0.81317 20.9161 0.746504 19.4961C0.683837 18.0747 0.666504 17.6227 0.666504 14.0001C0.666504 10.3774 0.679837 9.92541 0.746504 8.50408C0.81317 7.08275 1.03584 6.11741 1.3665 5.26675C1.70015 4.37632 2.22491 3.56984 2.90384 2.90408C3.57007 2.22572 4.37641 1.70105 5.2665 1.36675C6.11717 1.03608 7.0825 0.813415 8.50384 0.746748C9.92517 0.684081 10.3772 0.666748 13.9998 0.666748ZM13.9998 7.33341C12.2317 7.33341 10.536 8.03579 9.28579 9.28604C8.03555 10.5363 7.33317 12.232 7.33317 14.0001C7.33317 15.7682 8.03555 17.4639 9.28579 18.7141C10.536 19.9644 12.2317 20.6667 13.9998 20.6667C15.7679 20.6667 17.4636 19.9644 18.7139 18.7141C19.9641 17.4639 20.6665 15.7682 20.6665 14.0001C20.6665 12.232 19.9641 10.5363 18.7139 9.28604C17.4636 8.03579 15.7679 7.33341 13.9998 7.33341ZM22.6665 7.00008C22.6665 6.55805 22.4909 6.13413 22.1783 5.82157C21.8658 5.50901 21.4419 5.33341 20.9998 5.33341C20.5578 5.33341 20.1339 5.50901 19.8213 5.82157C19.5088 6.13413 19.3332 6.55805 19.3332 7.00008C19.3332 7.44211 19.5088 7.86603 19.8213 8.17859C20.1339 8.49115 20.5578 8.66675 20.9998 8.66675C21.4419 8.66675 21.8658 8.49115 22.1783 8.17859C22.4909 7.86603 22.6665 7.44211 22.6665 7.00008ZM13.9998 10.0001C15.0607 10.0001 16.0781 10.4215 16.8283 11.1717C17.5784 11.9218 17.9998 12.9392 17.9998 14.0001C17.9998 15.0609 17.5784 16.0784 16.8283 16.8285C16.0781 17.5787 15.0607 18.0001 13.9998 18.0001C12.939 18.0001 11.9216 17.5787 11.1714 16.8285C10.4213 16.0784 9.99984 15.0609 9.99984 14.0001C9.99984 12.9392 10.4213 11.9218 11.1714 11.1717C11.9216 10.4215 12.939 10.0001 13.9998 10.0001Z" fill="white"/>
</svg>
