<svg width="57" height="56" viewBox="0 0 57 56" fill="none" xmlns="http://www.w3.org/2000/svg">
<path d="M0.5 0V56H56.5V0H0.5ZM30.5 43.5C30.5 48.9512 27.28 51.6087 22.6187 51.6087C18.4087 51.6087 15.965 49.4287 14.725 46.7975L19.01 44.2038C19.8363 45.67 20.4637 46.91 22.2675 46.91C23.7675 46.91 25 46.2337 25 43.6025V26H30.5V43.5ZM42.9188 51.4837C38.0325 51.4837 34.875 49.2787 33.3338 46.2337L37.625 43.75C38.75 45.5925 40.2188 46.82 42.8125 46.82C44.9925 46.82 46.2588 45.855 46.2588 44.3512C46.2588 42.5475 44.955 41.9087 42.5488 40.8512L41.2337 40.2863C37.4362 38.6712 34.9188 36.6413 34.9188 32.355C34.9188 28.4087 37.925 25.5263 42.6237 25.5263C45.97 25.5263 48.3737 26.5663 50.105 29.6113L46 32.25C45.0975 30.6338 44.125 30 42.6175 30C41.0763 30 40.0988 30.9775 40.0988 32.25C40.0988 33.8288 41.0762 34.4675 43.3312 35.445L44.6463 36.0088C49.12 37.9263 51.6387 39.8838 51.6387 44.2788C51.64 49.0163 47.9188 51.4837 42.9188 51.4837Z" fill="#F4F4F4"/>
</svg>
