<svg width="57" height="64" viewBox="0 0 57 64" fill="none" xmlns="http://www.w3.org/2000/svg">
<path d="M28.4999 63.5001C27.6624 63.5001 26.8124 63.2751 26.0749 62.8501L18.3624 58.2876C17.2124 57.6376 17.7749 57.4126 18.1499 57.2876C19.6874 56.7501 19.9999 56.6376 21.6374 55.7001C21.8124 55.6001 22.0374 55.6376 22.2124 55.7501L28.1374 59.2626C28.3499 59.3876 28.6499 59.3876 28.8499 59.2626L51.9374 45.9376C52.1499 45.8126 52.2874 45.5626 52.2874 45.3126V18.6626C52.2874 18.4001 52.1499 18.1626 51.9249 18.0251L28.8499 4.7126C28.6374 4.5876 28.3499 4.5876 28.1374 4.7126L5.0749 18.0376C4.8499 18.1626 4.7124 18.4126 4.7124 18.6751V45.3126C4.7124 45.5626 4.8499 45.8126 5.0749 45.9251L11.3999 49.5751C14.8374 51.2876 16.9374 49.2751 16.9374 47.2376V20.9376C16.9374 20.5626 17.2374 20.2751 17.6124 20.2751H20.5374C20.8999 20.2751 21.2124 20.5626 21.2124 20.9376V47.2501C21.2124 51.8251 18.7124 54.4501 14.3749 54.4501C13.0374 54.4501 11.9874 54.4501 9.0624 53.0001L3.0124 49.5126C1.5124 48.6501 0.587402 47.0376 0.587402 45.3001V18.6626C0.587402 16.9376 1.5124 15.3126 3.0124 14.4501L26.0749 1.1251C27.5374 0.300098 29.4749 0.300098 30.9249 1.1251L54.0124 14.4626C55.5124 15.3251 56.4374 16.9376 56.4374 18.6751V45.3126C56.4374 47.0376 55.5124 48.6501 54.0124 49.5251L30.9249 62.8501C30.1874 63.2751 29.3499 63.5001 28.4999 63.5001ZM47.1374 37.2376C47.1374 32.2501 43.7624 30.9251 36.6749 29.9876C29.4999 29.0376 28.7749 28.5501 28.7749 26.8751C28.7749 25.4876 29.3874 23.6376 34.6999 23.6376C39.4374 23.6376 41.1874 24.6626 41.9124 27.8626C41.9749 28.1626 42.2499 28.3876 42.5624 28.3876H45.5624C45.7499 28.3876 45.9249 28.3126 46.0499 28.1751C46.1749 28.0376 46.2374 27.8501 46.2249 27.6626C45.7624 22.1501 42.0999 19.5876 34.6999 19.5876C28.1124 19.5876 24.1874 22.3626 24.1874 27.0251C24.1874 32.0751 28.0999 33.4751 34.4124 34.1001C41.9749 34.8376 42.5624 35.9501 42.5624 37.4376C42.5624 40.0126 40.4874 41.1126 35.6249 41.1126C29.5124 41.1126 28.1749 39.5751 27.7249 36.5376C27.6749 36.2126 27.3999 35.9751 27.0624 35.9751H24.0749C23.6999 35.9751 23.4124 36.2751 23.4124 36.6376C23.4124 40.5251 25.5249 45.1626 35.6374 45.1626C42.9374 45.1501 47.1374 42.2626 47.1374 37.2376Z" fill="#F4F4F4"/>
</svg>
