<svg width="65" height="64" viewBox="0 0 65 64" fill="none" xmlns="http://www.w3.org/2000/svg">
<path d="M38.66 0.48L41.06 1.01333L43.0067 1.70667L44.58 2.50667L45.78 3.36L46.6867 4.26667L47.3533 5.17333L47.78 6.05333L48.0467 6.85333L48.1533 7.54667L48.2067 8.08L48.18 8.42667V22.6667L48.0467 24.3467L47.7 25.8133L47.14 27.04L46.4467 28.0533L45.6467 28.88L44.7667 29.5467L43.8333 30.0533L42.9 30.4267L42.02 30.6933L41.22 30.88L40.5267 30.9867L39.9667 31.04H24.0467L22.2067 31.1733L20.6333 31.5467L19.3 32.1333L18.2067 32.8533L17.3267 33.7067L16.6067 34.64L16.0733 35.6L15.6733 36.5867L15.4067 37.52L15.22 38.3733L15.1133 39.0933L15.06 39.6533V47.8133H9.11333L8.55333 47.7333L7.80667 47.5467L6.95333 47.2267L6.02 46.7467L5.06 46.0533L4.1 45.0933L3.16667 43.8667L2.31333 42.2933L1.56667 40.3467L1.00667 38L0.633333 35.2L0.5 31.92L0.66 28.6667L1.08667 25.8933L1.72667 23.5733L2.58 21.68L3.54 20.16L4.60667 18.9867L5.72667 18.1067L6.84667 17.4667L7.91333 17.04L8.87333 16.7733L9.72667 16.64L10.3667 16.6133H10.7933L10.9533 16.64H32.7133V14.4267H17.14L17.1133 7.09333L17.06 6.10667L17.1933 5.2L17.4867 4.37333L17.94 3.62667L18.6067 2.93333L19.4333 2.32L20.4467 1.78667L21.62 1.30667L22.98 0.906667L24.5267 0.586667L26.2333 0.32L28.1267 0.16L30.18 0.0533333L32.42 0L35.8067 0.133333L38.66 0.48ZM21.86 5.76L21.2467 6.64L21.0333 7.73333L21.2467 8.82667L21.86 9.73333L22.74 10.32L23.8333 10.56L24.9267 10.32L25.8067 9.73333L26.42 8.82667L26.6333 7.73333L26.42 6.64L25.8067 5.76L24.9267 5.17333L23.8333 4.93333L22.74 5.17333L21.86 5.76ZM56.7667 16.2933L57.5133 16.4533L58.3667 16.7733L59.3 17.2533L60.26 17.9733L61.22 18.9067L62.1533 20.16L63.0067 21.7333L63.7533 23.68L64.3133 26.0267L64.6867 28.8L64.82 32.08L64.66 35.36L64.2333 38.1333L63.5933 40.4267L62.74 42.32L61.78 43.84L60.7133 45.04L59.5933 45.92L58.4733 46.56L57.4067 46.9867L56.4467 47.2267L55.5933 47.36L54.9533 47.4133L54.5267 47.3867H32.6067V49.5733H48.18L48.2067 56.9333L48.26 57.8933L48.1267 58.8L47.8333 59.6267L47.38 60.4L46.7133 61.0667L45.8867 61.7067L44.8733 62.24L43.7 62.6933L42.34 63.0933L40.7933 63.44L39.0867 63.68L37.1933 63.8667L35.14 63.9733L32.9 64L29.5133 63.8933L26.66 63.52L24.26 62.9867L22.3133 62.32L20.74 61.52L19.54 60.64L18.6333 59.7333L17.9667 58.8267L17.54 57.9467L17.2733 57.1467L17.1667 56.48L17.1133 55.9467L17.14 55.6V41.36L17.2733 39.6533L17.62 38.2133L18.18 36.9867L18.8733 35.9733L19.6733 35.12L20.5533 34.48L21.4867 33.9467L22.42 33.5733L23.3 33.3067L24.1 33.1467L24.7933 33.04L25.3533 32.9867L25.7 32.96H41.2733L43.1133 32.8267L44.6867 32.4533L46.02 31.8933L47.1133 31.1467L47.9933 30.2933L48.7133 29.36L49.2467 28.4L49.6467 27.44L49.9133 26.5067L50.1 25.6533L50.2067 24.9067L50.26 24.3467V16.1867H55.8333L56.2067 16.2133L56.7667 16.2933ZM39.5133 54.2933L38.9 55.1733L38.6867 56.2667L38.9 57.36L39.5133 58.24L40.3933 58.8533L41.4867 59.0667L42.58 58.8533L43.46 58.24L44.0733 57.36L44.2867 56.2667L44.0733 55.1733L43.46 54.2933L42.58 53.68L41.4867 53.4667L40.3933 53.68L39.5133 54.2933Z" fill="#F4F4F4"/>
</svg>
