<svg width="64" height="57" viewBox="0 0 64 57" fill="none" xmlns="http://www.w3.org/2000/svg">
<path d="M52.275 18.1499C51.6 17.9249 50.925 17.7124 50.25 17.5124C50.3625 17.0499 50.4625 16.5874 50.5625 16.1249C52.1 8.6749 51.0875 2.6874 47.675 0.712402C44.3875 -1.1751 39.025 0.787402 33.6 5.5124C33.0625 5.9749 32.5375 6.4624 32.0375 6.9499C31.7 6.6249 31.35 6.2999 31 5.9874C25.3125 0.937402 19.6125 -1.1876 16.2 0.799902C12.925 2.6999 11.95 8.3374 13.325 15.3874C13.4625 16.0874 13.6125 16.7749 13.7875 17.4749C12.9875 17.6999 12.2 17.9499 11.4625 18.2124C4.7875 20.5249 0 24.1749 0 27.9499C0 31.8499 5.1 35.7624 12.0375 38.1374C12.6 38.3249 13.1625 38.5124 13.7375 38.6749C13.55 39.4249 13.3875 40.1624 13.2375 40.9249C11.925 47.8624 12.95 53.3624 16.225 55.2499C19.6 57.1999 25.275 55.1999 30.8 50.3624C31.2375 49.9749 31.675 49.5749 32.1125 49.1499C32.6625 49.6874 33.2375 50.1999 33.8125 50.6999C39.1625 55.2999 44.45 57.1624 47.7125 55.2749C51.0875 53.3249 52.1875 47.4124 50.7625 40.2124C50.65 39.6624 50.525 39.0999 50.3875 38.5249C50.7875 38.4124 51.175 38.2874 51.5625 38.1624C58.775 35.7749 64 31.9124 64 27.9499C64 24.1624 59.075 20.4874 52.275 18.1499ZM35.3625 7.5374C40.0125 3.4874 44.35 1.8999 46.325 3.0374C48.4375 4.2499 49.25 9.1499 47.925 15.5874C47.8375 16.0124 47.75 16.4249 47.6375 16.8374C44.8625 16.2124 42.05 15.7624 39.225 15.5124C37.6 13.1874 35.825 10.9624 33.9 8.8749C34.3875 8.4124 34.8625 7.9749 35.3625 7.5374ZM20.9 34.4374C21.5375 35.5249 22.1875 36.6124 22.875 37.6749C20.925 37.4624 18.9875 37.1499 17.075 36.7374C17.625 34.9374 18.3125 33.0749 19.1125 31.1749C19.6875 32.2749 20.275 33.3624 20.9 34.4374ZM17.1125 19.3999C18.9125 18.9999 20.825 18.6749 22.8125 18.4249C22.15 19.4624 21.5 20.5249 20.8875 21.5999C20.275 22.6624 19.675 23.7499 19.1125 24.8499C18.325 22.9874 17.6625 21.1624 17.1125 19.3999ZM20.5375 28.0124C21.3625 26.2874 22.2625 24.5999 23.2125 22.9374C24.1625 21.2749 25.1875 19.6624 26.2625 18.0749C28.1375 17.9374 30.05 17.8624 32 17.8624C33.95 17.8624 35.875 17.9374 37.7375 18.0749C38.8 19.6499 39.8125 21.2624 40.775 22.9124C41.7375 24.5624 42.6375 26.2499 43.4875 27.9624C42.65 29.6874 41.75 31.3874 40.7875 33.0624C39.8375 34.7249 38.825 36.3374 37.7625 37.9374C35.9 38.0749 33.9625 38.1374 32 38.1374C30.0375 38.1374 28.1375 38.0749 26.3 37.9624C25.2125 36.3749 24.1875 34.7499 23.225 33.0874C22.2625 31.4249 21.375 29.7374 20.5375 28.0124ZM43.1125 34.4124C43.75 33.3124 44.35 32.1999 44.9375 31.0749C45.7375 32.8874 46.4375 34.7249 47.05 36.6124C45.1125 37.0499 43.15 37.3874 41.175 37.6124C41.85 36.5624 42.4875 35.4874 43.1125 34.4124ZM44.9125 24.8499C44.325 23.7499 43.725 22.6499 43.1 21.5749C42.4875 20.5124 41.85 19.4624 41.1875 18.4249C43.2 18.6749 45.125 19.0124 46.925 19.4249C46.35 21.2749 45.675 23.0749 44.9125 24.8499ZM32.025 10.7874C33.3375 12.2124 34.575 13.7124 35.725 15.2624C33.25 15.1499 30.7625 15.1499 28.2875 15.2624C29.5125 13.6499 30.775 12.1499 32.025 10.7874ZM17.525 3.1249C19.625 1.8999 24.2875 3.6499 29.2 7.9999C29.5125 8.2749 29.825 8.5749 30.15 8.8749C28.2125 10.9624 26.425 13.1874 24.7875 15.5124C21.9625 15.7624 19.1625 16.1999 16.3875 16.8124C16.225 16.1749 16.0875 15.5249 15.95 14.8749C14.775 8.8249 15.55 4.2624 17.525 3.1249ZM14.4625 36.0749C13.9375 35.9249 13.425 35.7624 12.9125 35.5874C10.25 34.7499 7.225 33.4249 5.0375 31.6874C3.775 30.8124 2.925 29.4624 2.6875 27.9499C2.6875 25.6624 6.6375 22.7374 12.3375 20.7499C13.05 20.4999 13.775 20.2749 14.5 20.0624C15.35 22.7749 16.375 25.4374 17.5625 28.0124C16.3625 30.6249 15.325 33.3249 14.4625 36.0749ZM29.0375 48.3249C26.975 50.2124 24.5875 51.7124 21.9875 52.7374C20.6 53.3999 19 53.4624 17.575 52.8999C15.5875 51.7499 14.7625 47.3374 15.8875 41.3999C16.025 40.6999 16.175 39.9999 16.35 39.3124C19.15 39.9124 21.975 40.3249 24.8375 40.5374C26.4875 42.8749 28.3 45.1124 30.2375 47.2124C29.8375 47.5999 29.4375 47.9749 29.0375 48.3249ZM32.1 45.2874C30.825 43.9124 29.55 42.3874 28.3125 40.7499C29.5125 40.7999 30.75 40.8249 32 40.8249C33.2875 40.8249 34.55 40.7999 35.8 40.7374C34.65 42.3249 33.4125 43.8374 32.1 45.2874ZM48.4375 49.0374C48.325 50.5624 47.575 51.9874 46.375 52.9499C44.3875 54.0999 40.15 52.5999 35.575 48.6749C35.05 48.2249 34.525 47.7374 33.9875 47.2374C35.9 45.1249 37.6625 42.8874 39.2625 40.5374C42.125 40.2999 44.975 39.8624 47.7875 39.2249C47.9125 39.7374 48.025 40.2499 48.125 40.7499C48.7375 43.4499 48.8375 46.2624 48.4375 49.0374ZM50.7125 35.5999C50.3625 35.7124 50.0125 35.8249 49.65 35.9249C48.775 33.1999 47.7 30.5374 46.4625 27.9499C47.6625 25.3999 48.675 22.7749 49.525 20.0874C50.175 20.2749 50.8 20.4749 51.4 20.6749C57.225 22.6749 61.3125 25.6499 61.3125 27.9249C61.3125 30.3749 56.95 33.5374 50.7125 35.5999ZM32 33.7249C35.1625 33.7249 37.725 31.1624 37.725 27.9999C37.725 24.8374 35.1625 22.2749 32 22.2749C28.8375 22.2749 26.275 24.8374 26.275 27.9999C26.275 31.1624 28.8375 33.7249 32 33.7249Z" fill="#F4F4F4"/>
</svg>
