<svg width="80" height="61" viewBox="0 0 80 61" fill="none" xmlns="http://www.w3.org/2000/svg">
<path d="M37.73 45.365C37.655 45.5 37.6925 45.44 37.73 45.365V45.365ZM68.8713 34.49C66.3572 34.4891 63.8766 35.0665 61.6213 36.1775C60.8838 34.69 60.1213 33.39 59.9963 32.415C59.8463 31.2775 59.6838 30.6025 59.8588 29.2525C60.0338 27.9025 60.8213 25.99 60.8088 25.8525C60.7963 25.715 60.6338 25.0275 59.0213 25.015C57.4088 25.0025 56.0213 25.3275 55.86 25.7525C55.5753 26.5291 55.3537 27.3276 55.1975 28.14C54.91 29.6025 51.9738 34.8275 50.3113 37.5525C49.7613 36.49 49.2988 35.5525 49.1988 34.8025C49.0488 33.665 48.8863 32.99 49.0613 31.64C49.2363 30.29 50.0238 28.3775 50.0113 28.24C49.9988 28.1025 49.8363 27.415 48.225 27.4025C46.6138 27.39 45.225 27.715 45.0625 28.14C44.9 28.565 44.725 29.565 44.4 30.5275C44.075 31.49 40.1638 40.19 39.14 42.4525C38.615 43.6025 38.165 44.5275 37.84 45.1525C37.79 45.2525 37.7525 45.315 37.7275 45.365C37.765 45.3025 37.79 45.24 37.79 45.265C37.515 45.8025 37.3525 46.1025 37.3525 46.1025V46.115C37.14 46.515 36.9025 46.8775 36.79 46.8775C36.715 46.8775 36.5525 45.8275 36.8275 44.39C37.415 41.365 38.8025 36.665 38.79 36.5025C38.7775 36.415 39.0525 35.6025 37.8775 35.165C36.74 34.7525 36.3275 35.44 36.2275 35.44C36.1275 35.44 36.0525 35.69 36.0525 35.69C36.0525 35.69 37.315 30.39 33.6288 30.39C31.3288 30.39 28.1288 32.915 26.5563 35.2025C25.5688 35.74 23.4313 36.9025 21.1813 38.14C20.3188 38.615 19.4313 39.1025 18.5938 39.565C18.5313 39.5025 18.4813 39.44 18.4188 39.3775C13.945 34.6025 5.68504 31.2275 6.03504 24.815C6.16004 22.4775 6.97254 16.34 21.9188 8.88996C34.1688 2.78996 43.9625 4.46496 45.6488 8.18996C48.0738 13.5025 40.4125 23.39 27.6913 24.815C22.8425 25.3525 20.2938 23.4775 19.6563 22.7775C18.9938 22.04 18.8938 22.0025 18.6438 22.14C18.2313 22.365 18.4938 23.015 18.6438 23.4025C19.0188 24.39 20.5813 26.14 23.2425 27.015C25.58 27.7775 31.265 28.2025 38.1388 25.54C45.8613 22.565 51.8725 14.2775 50.11 7.33996C48.315 0.289958 36.625 -2.02254 25.5713 1.90246C18.985 4.23996 11.8625 7.91496 6.73879 12.7025C0.652543 18.4025 -0.321207 23.365 0.0787929 25.44C1.50254 32.8025 11.65 37.6025 15.7113 41.1525C15.5113 41.265 15.3238 41.365 15.1488 41.465C13.1125 42.4775 5.37629 46.5275 3.44004 50.8025C1.25254 55.6525 3.80254 59.1275 5.47629 59.6025C10.7 61.0525 16.0488 58.44 18.9225 54.1525C21.7963 49.865 21.4475 44.265 20.1225 41.715C20.11 41.6775 20.085 41.6525 20.0725 41.615C20.5975 41.3025 21.135 40.99 21.6725 40.6775C22.7088 40.065 23.7213 39.5025 24.6088 39.015C24.1088 40.365 23.7463 41.99 23.5588 44.34C23.3338 47.09 24.4713 50.6525 25.9463 52.0525C26.5963 52.665 27.3825 52.6775 27.87 52.6775C29.595 52.6775 30.37 51.2525 31.2313 49.5525C32.2938 47.4775 33.2313 45.065 33.2313 45.065C33.2313 45.065 32.0563 51.59 35.2688 51.59C36.4425 51.59 37.6175 50.0775 38.1438 49.3025V49.315C38.1438 49.315 38.1688 49.265 38.2313 49.165C38.3563 48.9775 38.4188 48.865 38.4188 48.865V48.8275C38.8938 48.015 39.9313 46.1525 41.4925 43.0775C43.5175 39.1025 45.4538 34.14 45.4538 34.14C45.6409 35.2308 45.8998 36.3082 46.2288 37.365C46.5788 38.5525 47.3163 39.8525 47.9038 41.115C47.4288 41.765 47.1413 42.14 47.1413 42.14C47.1422 42.1496 47.1467 42.1585 47.1538 42.165C46.7788 42.665 46.3538 43.2025 45.9163 43.7275C44.3175 45.6275 42.4163 47.8025 42.1663 48.4275C41.8663 49.165 41.9413 49.715 42.5163 50.14C42.9413 50.465 43.6913 50.515 44.4775 50.4525C45.915 50.3525 46.9275 50.0025 47.415 49.7775C48.3138 49.4552 49.1632 49.0092 49.9388 48.4525C51.5013 47.3025 52.4513 45.6525 52.3638 43.4775C52.3138 42.2775 51.9263 41.0775 51.4513 39.9525C51.5888 39.7525 51.7388 39.54 51.8763 39.3275C54.35 35.715 56.2625 31.75 56.2625 31.75C56.4496 32.8408 56.7085 33.9182 57.0375 34.975C57.3375 35.9875 57.9238 37.1 58.4613 38.1875C56.1375 40.075 54.7 42.2625 54.2 43.7C53.275 46.3625 54 47.5625 55.3625 47.8375C55.975 47.9625 56.85 47.675 57.5 47.4C58.4654 47.0784 59.3756 46.6105 60.1988 46.0125C61.7613 44.8625 63.2725 43.25 63.1725 41.0625C63.135 40.075 62.86 39.0875 62.4975 38.1375C64.46 37.3125 67.0088 36.8625 70.2588 37.2375C77.2188 38.05 78.5813 42.4 78.3188 44.2125C78.0563 46.025 76.5938 47.0375 76.1063 47.3375C75.6188 47.6375 75.4688 47.75 75.5063 47.975C75.5688 48.3 75.7938 48.2875 76.2063 48.2125C76.7813 48.1125 79.855 46.7375 79.9925 43.375C80.1925 39.125 76.1063 34.45 68.8675 34.4875L68.8713 34.49ZM15.2238 52.5775C12.925 55.09 9.70004 56.04 8.31379 55.24C6.82629 54.375 7.41379 50.6775 10.25 48C11.975 46.375 14.1988 44.875 15.6738 43.95C16.0113 43.75 16.4988 43.45 17.0988 43.0875C17.1988 43.025 17.2488 43 17.2488 43C17.3613 42.925 17.4863 42.8625 17.6113 42.7875C18.6475 46.5875 17.6488 49.9375 15.2238 52.575V52.5775ZM32.0188 41.1525C31.2188 43.115 29.5325 48.115 28.5075 47.8525C27.6325 47.6275 27.095 43.815 28.3325 40.065C28.9575 38.1775 30.2825 35.9275 31.07 35.0525C32.3313 33.64 33.7188 33.19 34.0438 33.7525C34.4813 34.49 32.5188 39.9275 32.0188 41.1525ZM45.8938 47.7775C45.5563 47.9525 45.2438 48.065 45.0938 47.9775C44.9813 47.915 45.2313 47.6775 45.2313 47.6775C45.2313 47.6775 46.9688 45.815 47.6563 44.965C48.0563 44.465 48.5188 43.8775 49.0175 43.2275C49.0175 43.29 49.03 43.3525 49.03 43.4275C49.0138 45.665 46.865 47.1775 45.89 47.7775H45.8938ZM56.5913 45.34C56.3413 45.165 56.3788 44.5775 57.2163 42.7525C57.5413 42.04 58.29 40.84 59.5913 39.69C59.7386 40.1253 59.8187 40.5805 59.8288 41.04C59.8163 43.8525 57.8038 44.9025 56.5925 45.34H56.5913Z" fill="#F4F4F4"/>
</svg>
